<mxfile host="65bd71144e">
    <diagram id="SotwOa0Gqw6Tdz5-_HV4" name="Page-1">
        <mxGraphModel dx="326" dy="238" grid="1" gridSize="10" guides="1" tooltips="1" connect="1" arrows="1" fold="1" page="1" pageScale="1" pageWidth="850" pageHeight="1100" background="none" math="0" shadow="0">
            <root>
                <mxCell id="0"/>
                <mxCell id="1" parent="0"/>
                <mxCell id="14" value="Resource Group" style="swimlane;collapsible=0;swimlaneLine=0;align=left;fillColor=#dae8fc;strokeColor=#6c8ebf;swimlaneFillColor=#DAE8FC;fontColor=#333333;" parent="1" vertex="1">
                    <mxGeometry x="10" y="10" width="380" height="360" as="geometry"/>
                </mxCell>
                <mxCell id="16" value="" style="sketch=0;aspect=fixed;html=1;points=[];align=center;image;fontSize=12;image=img/lib/mscae/ResourceGroup.svg;fontColor=#333333;strokeColor=default;fillColor=default;" parent="14" vertex="1">
                    <mxGeometry x="100" y="3" width="25" height="20" as="geometry"/>
                </mxCell>
                <mxCell id="6" value="Virtual Network" style="swimlane;collapsible=0;swimlaneLine=0;align=left;fillColor=#f5f5f5;strokeColor=#666666;swimlaneFillColor=#F5F5F5;fontColor=#333333;" parent="14" vertex="1">
                    <mxGeometry x="10" y="30" width="360" height="230" as="geometry"/>
                </mxCell>
                <mxCell id="5" value="" style="verticalLabelPosition=bottom;html=1;verticalAlign=top;align=center;strokeColor=none;fillColor=#00BEF2;shape=mxgraph.azure.virtual_network;pointerEvents=1;" parent="6" vertex="1">
                    <mxGeometry x="95" y="4" width="34.55" height="19" as="geometry"/>
                </mxCell>
                <mxCell id="17" value="Kubernetes Cluster" style="swimlane;collapsible=0;swimlaneLine=0;align=left;fillColor=#ffe6cc;strokeColor=#d79b00;swimlaneFillColor=#FFE6CC;fontColor=#333;" parent="6" vertex="1">
                    <mxGeometry x="7.75" y="30" width="342.25" height="190" as="geometry"/>
                </mxCell>
                <mxCell id="10" value="" style="aspect=fixed;html=1;points=[];align=center;image;fontSize=12;image=img/lib/azure2/compute/Container_Services_Deprecated.svg;fontColor=#333333;strokeColor=default;fillColor=default;" parent="17" vertex="1">
                    <mxGeometry x="115" y="3" width="20.41" height="18" as="geometry"/>
                </mxCell>
                <mxCell id="12" value="Container Registry" style="swimlane;collapsible=0;swimlaneLine=0;align=left;fillColor=#d5e8d4;strokeColor=#82b366;swimlaneFillColor=#D5E8D4;fontColor=#333333;" parent="14" vertex="1">
                    <mxGeometry x="10" y="270" width="170" height="80" as="geometry"/>
                </mxCell>
                <mxCell id="11" value="" style="aspect=fixed;html=1;points=[];align=center;image;fontSize=12;image=img/lib/azure2/containers/Container_Registries.svg;fontColor=#333333;strokeColor=default;fillColor=default;" parent="12" vertex="1">
                    <mxGeometry x="114" y="2" width="23" height="20.63" as="geometry"/>
                </mxCell>
            </root>
        </mxGraphModel>
    </diagram>
</mxfile>